<svg width="54" height="54" viewBox="0 0 54 54" fill="none" xmlns="http://www.w3.org/2000/svg">
<path d="M0 27C0 41.9117 12.0883 54 27 54V54C41.9117 54 54 41.9117 54 27V27C54 12.0883 41.9117 1.43051e-06 27 1.43051e-06V1.43051e-06C12.0883 1.43051e-06 0 12.0883 0 27V27Z" fill="white"/>
<path d="M23.2929 19.2929C22.9024 19.6834 22.9024 20.3166 23.2929 20.7071L29.5858 27L23.2929 33.2929C22.9024 33.6834 22.9024 34.3166 23.2929 34.7071C23.6834 35.0976 24.3166 35.0976 24.7071 34.7071L31.7071 27.7071C32.0976 27.3166 32.0976 26.6834 31.7071 26.2929L24.7071 19.2929C24.3166 18.9024 23.6834 18.9024 23.2929 19.2929Z" fill="#25282B"/>
</svg>
