<svg width="25" height="24" viewBox="0 0 25 24" fill="none" xmlns="http://www.w3.org/2000/svg">
<path d="M12.6667 2C18.1897 2 22.6667 6.478 22.6667 12C22.6667 17.522 18.1897 22 12.6667 22C7.14375 22 2.66675 17.522 2.66675 12C2.66675 6.478 7.14375 2 12.6667 2ZM12.6667 3.667C8.07175 3.667 4.33375 7.405 4.33375 12C4.33375 16.595 8.07175 20.333 12.6667 20.333C17.2617 20.333 20.9997 16.595 20.9997 12C20.9997 7.405 17.2617 3.667 12.6667 3.667ZM11.9167 6C12.2962 6 12.6102 6.28233 12.6599 6.64827L12.6667 6.75V12H15.9167C16.3307 12 16.6667 12.336 16.6667 12.75C16.6667 13.1295 16.3844 13.4435 16.0185 13.4931L15.9167 13.5H11.9167C11.5372 13.5 11.2233 13.2177 11.1736 12.8517L11.1667 12.75V6.75C11.1667 6.336 11.5027 6 11.9167 6Z" fill="#1D242F"/>
</svg>
