<svg width="25" height="24" viewBox="0 0 25 24" fill="none" xmlns="http://www.w3.org/2000/svg">
<path d="M18.8333 20C18.8333 20.275 18.6093 20.5 18.3333 20.5H6.33325C6.05725 20.5 5.83325 20.275 5.83325 20V4C5.83325 3.725 6.05725 3.5 6.33325 3.5H12.3333V8C12.3333 9.104 13.2293 10 14.3333 10H18.8333V20ZM13.8333 4.621L17.7113 8.5H14.3333C14.0573 8.5 13.8333 8.275 13.8333 8V4.621ZM19.7473 8.414L13.9183 2.586C13.8923 2.56 13.8603 2.54 13.8333 2.516C13.7623 2.452 13.6923 2.389 13.6143 2.336C13.5743 2.309 13.5283 2.291 13.4863 2.268C13.4153 2.228 13.3453 2.184 13.2703 2.152C13.0733 2.07 12.8613 2.029 12.6463 2.014C12.5993 2.011 12.5533 2 12.5053 2H12.5043H12.3333H6.33325C5.22925 2 4.33325 2.896 4.33325 4V20C4.33325 21.104 5.22925 22 6.33325 22H18.3333C19.4373 22 20.3333 21.104 20.3333 20V10V9.828C20.3333 9.298 20.1223 8.789 19.7473 8.414Z" fill="#1D242F"/>
</svg>
